<svg width="104" height="42" viewBox="0 0 104 42" fill="none" xmlns="http://www.w3.org/2000/svg">
<path fill-rule="evenodd" clip-rule="evenodd" d="M41.9998 21.0966L42 21C42 9.40202 32.598 0 21 0C10.1757 0 1.26409 8.18954 0.123364 18.7105L11.79 24.4142C12.3617 23.6184 13.2953 23.1 14.35 23.1C15.2427 23.1 16.0487 23.4714 16.6219 24.068L25.9002 16.4134C25.9198 14.6906 27.3225 13.3 29.05 13.3C30.6572 13.3 31.9833 14.5037 32.1759 16.0587L41.9998 21.0966ZM17.4857 25.9482L26.5994 18.4294C27.1769 19.1434 28.0601 19.6 29.05 19.6C30.1912 19.6 31.1907 18.9931 31.7433 18.0845L41.8775 23.2815C40.7404 33.8063 31.8271 42 21 42C9.40202 42 0 32.598 0 21C0 20.9588 0.000118391 20.9177 0.000354851 20.8766L11.2016 26.3528C11.2559 28.0449 12.6447 29.4 14.35 29.4C16.0897 29.4 17.5 27.9897 17.5 26.25C17.5 26.1482 17.4952 26.0475 17.4857 25.9482Z" fill="#F8F6FA"/>
<path d="M58.525 32V11.75H63.5C64.4 11.75 65.2083 11.8333 65.925 12C66.6583 12.1667 67.2833 12.45 67.8 12.85C68.3333 13.2333 68.7417 13.7583 69.025 14.425C69.3083 15.0917 69.45 15.9333 69.45 16.95C69.45 17.7667 69.3333 18.4667 69.1 19.05C68.8833 19.6333 68.5583 20.1 68.125 20.45C67.6917 20.7833 67.15 21.0083 66.5 21.125C67.3 21.2583 67.9583 21.5417 68.475 21.975C69.0083 22.3917 69.4 22.9417 69.65 23.625C69.9167 24.3083 70.05 25.1333 70.05 26.1C70.05 27.0667 69.925 27.925 69.675 28.675C69.4417 29.4083 69.0833 30.025 68.6 30.525C68.1333 31.0083 67.5417 31.375 66.825 31.625C66.125 31.875 65.3 32 64.35 32H58.525ZM62.225 29.4H63.625C64.7417 29.4 65.5 29.1333 65.9 28.6C66.3 28.05 66.5 27.2083 66.5 26.075C66.5 25.2583 66.4 24.6 66.2 24.1C66.0167 23.5833 65.7 23.2 65.25 22.95C64.8167 22.7 64.2333 22.575 63.5 22.575H62.225V29.4ZM62.225 20.025H63.475C64.2083 20.025 64.775 19.9167 65.175 19.7C65.575 19.4833 65.85 19.15 66 18.7C66.1667 18.25 66.25 17.6833 66.25 17C66.25 16.2833 66.125 15.7333 65.875 15.35C65.6417 14.95 65.2833 14.6833 64.8 14.55C64.3167 14.4 63.7 14.325 62.95 14.325H62.225V20.025ZM75.016 32.225C74.366 32.225 73.8077 32.0583 73.341 31.725C72.8743 31.375 72.516 30.9417 72.266 30.425C72.016 29.8917 71.891 29.3417 71.891 28.775C71.891 27.875 72.0577 27.1167 72.391 26.5C72.7243 25.8833 73.166 25.3667 73.716 24.95C74.266 24.5333 74.891 24.175 75.591 23.875C76.291 23.5583 76.9993 23.275 77.716 23.025V21.775C77.716 21.3583 77.6827 21.0083 77.616 20.725C77.566 20.4417 77.4577 20.225 77.291 20.075C77.141 19.925 76.8993 19.85 76.566 19.85C76.2827 19.85 76.0493 19.9167 75.866 20.05C75.6993 20.1833 75.5743 20.375 75.491 20.625C75.4243 20.8583 75.3827 21.1333 75.366 21.45L75.316 22.325L72.091 22.2C72.141 20.5333 72.5493 19.3083 73.316 18.525C74.0993 17.725 75.2827 17.325 76.866 17.325C78.316 17.325 79.366 17.725 80.016 18.525C80.6827 19.325 81.016 20.4083 81.016 21.775V28.45C81.016 28.9833 81.0243 29.4667 81.041 29.9C81.0743 30.3333 81.1077 30.725 81.141 31.075C81.191 31.425 81.2327 31.7333 81.266 32H78.216C78.166 31.6667 78.0993 31.2917 78.016 30.875C77.9493 30.4417 77.8993 30.125 77.866 29.925C77.6993 30.5083 77.3827 31.0417 76.916 31.525C76.4493 31.9917 75.816 32.225 75.016 32.225ZM76.266 29.7C76.4827 29.7 76.6827 29.65 76.866 29.55C77.066 29.4333 77.241 29.3 77.391 29.15C77.541 29 77.6493 28.8667 77.716 28.75V24.725C77.3493 24.9417 76.9993 25.1583 76.666 25.375C76.3493 25.5917 76.066 25.8333 75.816 26.1C75.5827 26.35 75.3993 26.625 75.266 26.925C75.1493 27.225 75.091 27.575 75.091 27.975C75.091 28.5083 75.191 28.9333 75.391 29.25C75.6077 29.55 75.8993 29.7 76.266 29.7ZM87.4447 32.225C86.2281 32.225 85.2281 31.9 84.4447 31.25C83.6614 30.6 83.1031 29.65 82.7697 28.4L85.2947 27.425C85.4947 28.2083 85.7614 28.8083 86.0947 29.225C86.4281 29.6417 86.8614 29.85 87.3947 29.85C87.7947 29.85 88.0947 29.75 88.2947 29.55C88.4947 29.35 88.5947 29.075 88.5947 28.725C88.5947 28.325 88.4697 27.9667 88.2197 27.65C87.9864 27.3167 87.5781 26.9083 86.9947 26.425L85.2447 24.95C84.6114 24.4 84.0947 23.8417 83.6947 23.275C83.3114 22.6917 83.1197 21.9667 83.1197 21.1C83.1197 20.3167 83.2947 19.65 83.6447 19.1C84.0114 18.5333 84.5031 18.1 85.1197 17.8C85.7531 17.4833 86.4531 17.325 87.2197 17.325C88.3864 17.325 89.3197 17.675 90.0197 18.375C90.7364 19.0583 91.1947 19.9583 91.3947 21.075L89.1697 22.025C89.0864 21.625 88.9614 21.2583 88.7947 20.925C88.6447 20.575 88.4447 20.2917 88.1947 20.075C87.9447 19.8583 87.6531 19.75 87.3197 19.75C86.9697 19.75 86.6864 19.8583 86.4697 20.075C86.2697 20.2917 86.1697 20.5667 86.1697 20.9C86.1697 21.1833 86.2864 21.475 86.5197 21.775C86.7697 22.075 87.1197 22.4167 87.5697 22.8L89.3447 24.4C89.7281 24.7333 90.0947 25.0917 90.4447 25.475C90.7947 25.8583 91.0864 26.2917 91.3197 26.775C91.5531 27.2417 91.6697 27.7833 91.6697 28.4C91.6697 29.2333 91.4781 29.9333 91.0947 30.5C90.7281 31.0667 90.2197 31.5 89.5697 31.8C88.9364 32.0833 88.2281 32.225 87.4447 32.225ZM97.9045 32.225C96.8212 32.225 95.9378 32.025 95.2545 31.625C94.5712 31.2083 94.0628 30.6083 93.7295 29.825C93.4128 29.025 93.2545 28.0667 93.2545 26.95V22.6C93.2545 21.45 93.4128 20.4833 93.7295 19.7C94.0628 18.9167 94.5712 18.325 95.2545 17.925C95.9545 17.525 96.8378 17.325 97.9045 17.325C99.0545 17.325 99.9462 17.5417 100.579 17.975C101.229 18.4083 101.688 19.0417 101.954 19.875C102.238 20.6917 102.379 21.6917 102.379 22.875V24.925H96.6295V27.775C96.6295 28.2417 96.6712 28.625 96.7545 28.925C96.8545 29.225 97.0045 29.4417 97.2045 29.575C97.4045 29.7083 97.6462 29.775 97.9295 29.775C98.2295 29.775 98.4712 29.7083 98.6545 29.575C98.8378 29.425 98.9712 29.2167 99.0545 28.95C99.1378 28.6667 99.1795 28.3167 99.1795 27.9V26.7H102.354V27.675C102.354 29.1417 101.988 30.2667 101.254 31.05C100.521 31.8333 99.4045 32.225 97.9045 32.225ZM96.6295 23.25H99.1795V21.875C99.1795 21.375 99.1378 20.975 99.0545 20.675C98.9712 20.3583 98.8378 20.1333 98.6545 20C98.4712 19.85 98.2128 19.775 97.8795 19.775C97.5795 19.775 97.3378 19.85 97.1545 20C96.9712 20.15 96.8378 20.4 96.7545 20.75C96.6712 21.1 96.6295 21.6 96.6295 22.25V23.25Z" fill="#F8F6FA"/>
</svg>
