<svg width="82" height="51" viewBox="0 0 82 51" fill="none" xmlns="http://www.w3.org/2000/svg">
<path fill-rule="evenodd" clip-rule="evenodd" d="M41.0234 50.3167C63.6542 50.3167 82 39.2058 82 25.4999C82 11.794 63.6542 0.683105 41.0234 0.683105C18.3927 0.683105 0.046875 11.794 0.046875 25.4999C0.046875 39.2058 18.3927 50.3167 41.0234 50.3167ZM41.0234 49.9458C18.7309 49.9458 0.659317 39.001 0.659317 25.4999C0.659317 11.9988 18.7309 1.05402 41.0234 1.05402C63.3159 1.05402 81.3876 11.9988 81.3876 25.4999C81.3876 39.001 63.3159 49.9458 41.0234 49.9458ZM73.9199 25.4999C73.9199 36.6559 59.1916 45.6996 41.0233 45.6996C22.8549 45.6996 8.12658 36.6559 8.12658 25.4999C8.12658 14.3439 22.8549 5.30015 41.0233 5.30015C59.1916 5.30015 73.9199 14.3439 73.9199 25.4999ZM9.06932 25.4999C9.06932 36.3362 23.3756 45.1207 41.0233 45.1207C58.6709 45.1207 72.9772 36.3362 72.9772 25.4999C72.9772 14.6636 58.6709 5.87903 41.0233 5.87903C23.3756 5.87903 9.06932 14.6636 9.06932 25.4999ZM65.8399 25.5C65.8399 34.106 54.729 41.0826 41.0231 41.0826C27.3171 41.0826 16.2063 34.106 16.2063 25.5C16.2063 16.8939 27.3171 9.91731 41.0231 9.91731C54.729 9.91731 65.8399 16.8939 65.8399 25.5ZM18.0358 25.5C18.0358 33.4716 28.3275 39.9338 41.0231 39.9338C53.7186 39.9338 64.0104 33.4716 64.0104 25.5C64.0104 17.5283 53.7186 11.0661 41.0231 11.0661C28.3275 11.0661 18.0358 17.5283 18.0358 25.5ZM60.0681 25.4999C60.0681 32.1935 51.5412 37.6198 41.0227 37.6198C30.5041 37.6198 21.9772 32.1935 21.9772 25.4999C21.9772 18.8063 30.5041 13.3801 41.0227 13.3801C51.5412 13.3801 60.0681 18.8063 60.0681 25.4999ZM24.2226 25.4999C24.2226 31.4044 31.7443 36.1908 41.0227 36.1908C50.3011 36.1908 57.8227 31.4044 57.8227 25.4999C57.8227 19.5955 50.3011 14.809 41.0227 14.809C31.7443 14.809 24.2226 19.5955 24.2226 25.4999ZM41.0233 33.0026C47.7169 33.0026 53.1432 29.6435 53.1432 25.4999C53.1432 21.3562 47.7169 17.9971 41.0233 17.9971C34.3298 17.9971 28.9035 21.3562 28.9035 25.4999C28.9035 29.6435 34.3298 33.0026 41.0233 33.0026ZM41.0233 31.413C35.7479 31.413 31.4713 28.7656 31.4713 25.4999C31.4713 22.2341 35.7479 19.5867 41.0233 19.5867C46.2988 19.5867 50.5754 22.2341 50.5754 25.4999C50.5754 28.7656 46.2988 31.413 41.0233 31.413Z" fill="url(#paint0_radial_46_40)" fill-opacity="0.12"/>
<defs>
<radialGradient id="paint0_radial_46_40" cx="0" cy="0" r="1" gradientUnits="userSpaceOnUse" gradientTransform="translate(41.0234 25.4999) rotate(88.6028) scale(23.6696 39.0823)">
<stop stop-color="#9DBFFF"/>
<stop offset="0.184492" stop-color="#9DBFFF" stop-opacity="0.22"/>
<stop offset="1" stop-color="#9DBFFF" stop-opacity="0"/>
</radialGradient>
</defs>
</svg>
